<svg xmlns="http://www.w3.org/2000/svg" width="1600" height="560"><rect width="1600" height="560" fill="#FFFFFF"/><g transform="translate(200,97) scale(2.8986) translate(-225,-225)"><polygon fill="#000000" points="268.01 297 288 257.02 307.99 297 324 297 288 225 252 297 268.01 297"/><polygon fill="#000000" points="238.5 324 225 351 241.01 351 250.01 333 254.51 324 238.5 324"/><polygon fill="#000000" points="321.49 324 325.99 333 334.99 351 351 351 337.5 324 321.49 324"/><path fill="#000000" d="M387,297v-54h45c24.81,0,45,20.19,45,45,0,3.08-.31,6.09-.91,9h18.26c.42-2.94.65-5.94.65-9,0-34.79-28.21-63-63-63h-63v72h18Z"/><path fill="#000000" d="M458.97,324c-7.52,5.65-16.86,9-26.97,9h-45v-9h-18v27h63c21.4,0,40.3-10.68,51.69-27h-24.72Z"/><polygon fill="#000000" points="609.49 324 613.99 333 622.99 351 639 351 625.5 324 609.49 324"/><polygon fill="#000000" points="556.01 297 576 257.02 595.99 297 612 297 576 225 540 297 556.01 297"/><polygon fill="#000000" points="526.5 324 513 351 529.01 351 538.01 333 542.51 324 526.5 324"/></g></svg>
